<?xml version="1.0" encoding="UTF-8" standalone="no"?>
<!-- Created with Inkscape (http://www.inkscape.org/) -->

<svg
   xmlns:dc="http://purl.org/dc/elements/1.1/"
   xmlns:cc="http://creativecommons.org/ns#"
   xmlns:rdf="http://www.w3.org/1999/02/22-rdf-syntax-ns#"
   xmlns:svg="http://www.w3.org/2000/svg"
   xmlns="http://www.w3.org/2000/svg"
   version="1.2"
   width="248.03149"
   height="187.79527"
   id="svg2">
  <defs
     id="defs4" />
  <metadata
     id="metadata7">
    <rdf:RDF>
      <cc:Work
         rdf:about="">
        <dc:format>image/svg+xml</dc:format>
        <dc:type
           rdf:resource="http://purl.org/dc/dcmitype/StillImage" />
        <dc:title></dc:title>
      </cc:Work>
    </rdf:RDF>
  </metadata>
  <g
     transform="translate(0,10.105307)"
     id="g20665">
    <g
       id="g20456">
      <g
         id="g20231">
        <g
           id="g20094">
          <circle
             cx="0"
             cy="0"
             r="100"
             transform="matrix(0.99761095,0.06908239,-0.06908239,0.99761095,124.01575,201.96167)"
             id="circle8849"
             style="fill:none;stroke:#000000;stroke-width:1.41732287;stroke-miterlimit:4;stroke-dasharray:none" />
          <circle
             cx="0"
             cy="0"
             r="50"
             transform="matrix(0.99761095,0.06908239,-0.06908239,0.99761095,124.01575,201.96167)"
             id="circle8847"
             style="fill:none;stroke:#000000;stroke-width:1.41732287;stroke-miterlimit:4;stroke-dasharray:none" />
          <g
             transform="translate(-171.58044,-225.65723)"
             id="g11053"
             style="stroke-width:1.0629921;stroke-miterlimit:4;stroke-dasharray:none">
            <path
               d="M 295.59619,427.61885 384.52742,306.82466"
               id="path8889"
               style="fill:none;stroke:#000000;stroke-width:1.0629921;stroke-miterlimit:4;stroke-dasharray:none" />
            <path
               d="m 319.95967,383.95627 48.72697,-87.32515"
               id="path8891"
               style="fill:none;stroke:#000000;stroke-width:1.0629921;stroke-miterlimit:4;stroke-dasharray:none" />
            <path
               d="m 314.29519,381.247 37.398,-92.74367"
               id="path8893"
               style="fill:none;stroke:#000000;stroke-width:1.0629921;stroke-miterlimit:4;stroke-dasharray:none" />
            <path
               d="m 308.33581,379.26906 25.47924,-96.69958"
               id="path8895"
               style="fill:none;stroke:#000000;stroke-width:1.0629921;stroke-miterlimit:4;stroke-dasharray:none" />
            <path
               d="m 302.17552,378.05361 13.15866,-99.13047"
               id="path8897"
               style="fill:none;stroke:#000000;stroke-width:1.0629921;stroke-miterlimit:4;stroke-dasharray:none" />
            <path
               d="m 295.59619,427.61885 0.94583,-149.99702"
               id="path8899"
               style="fill:none;stroke:#000000;stroke-width:1.0629921;stroke-miterlimit:4;stroke-dasharray:none" />
            <path
               d="M 289.64244,377.97459 277.73495,278.68605"
               id="path8901"
               style="fill:none;stroke:#000000;stroke-width:1.0629921;stroke-miterlimit:4;stroke-dasharray:none" />
            <path
               d="m 283.46731,379.11224 -24.25774,-97.0132"
               id="path8903"
               style="fill:none;stroke:#000000;stroke-width:1.0629921;stroke-miterlimit:4;stroke-dasharray:none" />
            <path
               d="M 277.48346,381.01489 241.25802,287.80696"
               id="path8905"
               style="fill:none;stroke:#000000;stroke-width:1.0629921;stroke-miterlimit:4;stroke-dasharray:none" />
            <path
               d="M 271.78526,383.65249 224.16341,295.7198"
               id="path8907"
               style="fill:none;stroke:#000000;stroke-width:1.0629921;stroke-miterlimit:4;stroke-dasharray:none" />
            <path
               d="M 295.59619,427.61885 208.19535,305.71276"
               id="path8909"
               style="fill:none;stroke:#000000;stroke-width:1.0629921;stroke-miterlimit:4;stroke-dasharray:none" />
          </g>
          <path
             d="m 121.01331,56.780277 0.84375,45.218803 0.53125,-0.031 -0.84375,-45.187503 c -0.17722,0 -0.35417,0 -0.53125,0 z m 7.28125,0.031 -1.40625,45.187503 0.53125,0.031 1.40625,-45.218703 c -0.1773,-0.01 -0.35406,0 -0.53125,0 z m -10.90625,0.062 1.96875,45.187503 0.53125,0 -1.96875,-45.187503 c -0.17749,0.01 -0.35391,-0.01 -0.53125,0 z m 14.5625,0.094 -2.53125,45.125103 0.5,0.031 2.5625,-45.125003 c -0.1768,-0.01 -0.35456,-0.022 -0.53125,-0.031 z m -17.6875,0.094 c -0.17666,0.012 -0.35475,0.019 -0.53125,0.031 l 3.125,45.125003 0.53125,-0.031 -3.125,-45.125003 z m 21.34375,0.1563 -3.6875,45.062503 0.53125,0.031 3.6875,-45.031303 c -0.17684,-0.015 -0.35421,-0.048 -0.53125,-0.062 z m -25,0.125 c -0.17658,0.016 -0.35483,0.014 -0.53125,0.031 l 4.28125,45.062503 0.5,-0.062 -4.25,-45.031103 z m 28.625,0.2187 -4.8125,44.937503 0.53125,0.062 4.8125,-44.968703 c -0.17717,-0.019 -0.35388,-0.013 -0.53125,-0.031 z m -35.875,0.625 c -0.16831,0.024 -0.33186,0.069 -0.5,0.094 l 6.5,44.750003 0.53125,-0.062 -6.53125,-44.781203 z m 43.125,0.3125 -7.09375,44.656303 0.53125,0.094 7.0625,-44.656303 c -0.16814,-0.027 -0.33165,-0.068 -0.5,-0.094 z m -46.718755,0.25 c -0.17654,0.03 -0.35491,0.063 -0.53125,0.094 l 7.625005,44.593803 0.53125,-0.094 -7.625005,-44.593803 z m 50.312505,0.3438 -8.1875,44.468703 0.5,0.094 8.1875,-44.468703 c -0.1662,-0.031 -0.33359,-0.064 -0.5,-0.094 z m -53.906253,0.3439 c -0.17757,0.035 -0.3539,0.059 -0.53125,0.094 l 8.750003,44.375003 0.53125,-0.094 -8.750003,-44.375003 z m 57.500003,0.3437 -9.3125,44.281303 0.5,0.094 9.3125,-44.250003 c -0.16866,-0.036 -0.33111,-0.09 -0.5,-0.125 z m -61.093753,0.375 c -0.16729,0.037 -0.33291,0.087 -0.5,0.125 l 9.875003,44.156303 0.5,-0.125 -9.875003,-44.156303 z m 64.656253,0.4063 -10.4375,44.031203 0.53125,0.125 10.40625,-44.031203 c -0.16617,-0.039 -0.33359,-0.086 -0.5,-0.125 z m -71.750003,1.3437 c -0.15938,0.044 -0.30958,0.1119 -0.46875,0.1563 l 12.0625,43.593703 0.5,-0.125 -12.09375,-43.625003 z m 78.812503,0.5 -12.625,43.468803 0.5,0.125 12.625,-43.437503 c -0.16768,-0.049 -0.33205,-0.108 -0.5,-0.1563 z m -82.312503,0.5313 c -0.16665,0.05 -0.33359,0.1052 -0.5,0.1562 l 13.1875,43.281293 0.5,-0.1563 -13.1875,-43.281193 z m 85.812503,0.5312 -13.71875,43.124993 0.5,0.1563 13.71875,-43.124993 c -0.16597,-0.053 -0.33376,-0.1039 -0.5,-0.1563 z m -89.281253,0.5625 c -0.16547,0.055 -0.33479,0.101 -0.5,0.1563 l 14.25,42.937493 0.5,-0.1563 -14.25,-42.937493 z m 92.718753,0.5938 -14.78125,42.749993 0.5,0.1562 14.78125,-42.749993 c -0.1653,-0.057 -0.33442,-0.099 -0.5,-0.1562 z m -96.187503,0.5937 c -0.15562,0.056 -0.31337,0.1 -0.46875,0.1563 l 15.3125,42.593693 0.5,-0.1875 -15.34375,-42.562493 z m 99.625003,0.625 -15.84375,42.374993 0.5,0.1875 15.84375,-42.374993 c -0.16692,-0.063 -0.33277,-0.1253 -0.5,-0.1875 z m -106.406253,2 c -0.15783,0.066 -0.31119,0.1525 -0.46875,0.2188 l 17.40625,41.749993 0.5,-0.2188 -17.4375,-41.749993 z m 113.187503,0.7188 -17.96875,41.531193 0.5,0.1875 17.96875,-41.531193 c -0.16182,-0.07 -0.33786,-0.1177 -0.5,-0.1875 z m -116.562503,0.7187 c -0.15877,0.071 -0.31027,0.1473 -0.46875,0.2188 l 18.5,41.312493 0.46875,-0.2188 -18.5,-41.312493 z m 119.906253,0.75 -19,41.062493 0.46875,0.2188 19,-41.062493 c -0.15676,-0.073 -0.31167,-0.1464 -0.46875,-0.2188 z M 61.607057,70.81148 c -0.15502,0.074 -0.31402,0.1442 -0.46875,0.2187 l 19.5,40.84379 0.46875,-0.25 -19.5,-40.81249 z m 126.500003,0.8125 -20.0625,40.56249 0.5,0.2187 20.03125,-40.56249 c -0.15516,-0.077 -0.31326,-0.1422 -0.46875,-0.2187 z m -129.781253,0.8125 c -0.16594,0.084 -0.33441,0.165 -0.5,0.25 l 20.5625,40.28119 0.46875,-0.2187 -20.53125,-40.31249 z m 133.031253,0.8125 -21.0625,40.06249 0.46875,0.25 21.0625,-40.06249 c -0.15575,-0.082 -0.31265,-0.1683 -0.46875,-0.25 z m -139.468753,2.6562 c -0.14509,0.083 -0.29272,0.1663 -0.4375,0.25 l 22.53125,39.21879 0.4375,-0.25 -22.53125,-39.21879 z m 145.843753,0.9063 -23.03125,38.93749 0.4375,0.2812 23.0625,-38.96869 c -0.15106,-0.09 -0.31732,-0.1607 -0.46875,-0.25 z m -149.000003,0.9375 c -0.14841,0.09 -0.28943,0.1906 -0.4375,0.2812 l 23.5,38.62499 0.46875,-0.25 -23.53125,-38.65619 z m 152.093753,0.9375 -23.96875,38.37499 0.4375,0.2812 24.03125,-38.34369 c -0.16719,-0.1054 -0.33234,-0.2079 -0.5,-0.3125 z m -155.156253,1 c -0.1459,0.094 -0.29195,0.187 -0.4375,0.2812 l 24.4375,38.03129 0.46875,-0.2813 -24.46875,-38.03119 z m 158.250003,1 -24.96875,37.71869 0.4375,0.2813 24.96875,-37.71879 c -0.1439,-0.096 -0.29323,-0.186 -0.4375,-0.2812 z m -161.312503,1 c -0.15569,0.1055 -0.31348,0.2063 -0.46875,0.3125 l 25.4375,37.40619 0.46875,-0.3125 -25.4375,-37.40619 z m 164.343753,1.0312 -25.90625,37.09379 0.4375,0.3125 25.90625,-37.09379 c -0.14634,-0.1028 -0.29075,-0.2102 -0.4375,-0.3125 z"
             id="path9045"
             style="font-size:medium;font-style:normal;font-variant:normal;font-weight:normal;font-stretch:normal;text-indent:0;text-align:start;text-decoration:none;line-height:normal;letter-spacing:normal;word-spacing:normal;text-transform:none;direction:ltr;block-progression:tb;writing-mode:lr-tb;text-anchor:start;baseline-shift:baseline;color:#000000;fill:#000000;fill-opacity:1;stroke:none;stroke-width:0.53149605;marker:none;visibility:visible;display:inline;overflow:visible;enable-background:accumulate;font-family:Sans;-inkscape-font-specification:Sans" />
          <text
             x="264.61911"
             y="-530.16571"
             transform="matrix(0.99761096,0.06908239,-0.06908239,0.99761096,0,0)"
             id="text9907"
             xml:space="preserve"
             style="font-size:40px;font-style:normal;font-variant:normal;font-weight:normal;font-stretch:normal;line-height:125%;letter-spacing:0px;word-spacing:0px;fill:#000000;fill-opacity:1;stroke:none;font-family:Futura Bk BT;-inkscape-font-specification:Futura Bk BT"><tspan
               x="264.61911"
               y="-530.16571"
               id="tspan9909"></tspan></text>
          <flowRoot
             transform="matrix(0.99761095,0.06908239,-0.06908239,0.99761095,31.332141,-878.90546)"
             id="flowRoot9911"
             xml:space="preserve"
             style="font-size:10px;font-style:normal;font-variant:normal;font-weight:normal;font-stretch:normal;line-height:125%;letter-spacing:0px;word-spacing:0px;fill:#000000;fill-opacity:1;stroke:none;font-family:Futura Bk BT;-inkscape-font-specification:Futura Bk BT"><flowRegion
               id="flowRegion9913"><rect
                 width="38.588684"
                 height="45.721191"
                 x="292.24985"
                 y="333.07642"
                 id="rect9915"
                 style="font-size:10px" /></flowRegion><flowPara
               id="flowPara9917"></flowPara></flowRoot>          <flowRoot
             transform="matrix(0.99761095,0.06908239,-0.06908239,0.99761095,31.332141,-878.90546)"
             id="flowRoot9983"
             xml:space="preserve"
             style="font-size:10px;font-style:normal;font-variant:normal;font-weight:normal;font-stretch:normal;line-height:125%;letter-spacing:0px;word-spacing:0px;fill:#000000;fill-opacity:1;stroke:none;font-family:Futura Bk BT;-inkscape-font-specification:Futura Bk BT"><flowRegion
               id="flowRegion9985"><rect
                 width="30.541756"
                 height="20.665977"
                 x="340.89719"
                 y="360.32623"
                 id="rect9987" /></flowRegion><flowPara
               id="flowPara9989"></flowPara></flowRoot>          <circle
             cx="0"
             cy="0"
             r="150"
             transform="matrix(0.93224849,0.06455618,-0.06455618,0.93224849,124.01575,201.96167)"
             id="circle8851-6"
             style="fill:#ffffff;stroke:none" />
          <path
             d="m 207.13831,89.06158 c -20.70692,-15.2758 -45.86574,-25.028303 -73.4375,-26.937503 -3.62016,-0.2507 -7.21159,-0.3681 -10.78125,-0.3438 -29.842493,0.2031 -57.737153,9.869003 -80.593753,26.281303"
             id="circle8851"
             style="fill:none;stroke:#000000;stroke-width:1.41732275;stroke-linecap:butt;stroke-miterlimit:4;stroke-dasharray:none" />
          <flowRoot
             transform="translate(1.0850171,-859.50656)"
             id="flowRoot11346"
             xml:space="preserve"
             style="font-size:10px;font-style:normal;font-variant:normal;font-weight:normal;font-stretch:normal;line-height:125%;letter-spacing:0px;word-spacing:0px;fill:#000000;fill-opacity:1;stroke:none;font-family:Futura Bk BT;-inkscape-font-specification:Futura Bk BT"><flowRegion
               id="flowRegion11348"><rect
                 width="270.03876"
                 height="87.686256"
                 x="208.52751"
                 y="233.08464"
                 id="rect11350" /></flowRegion><flowPara
               id="flowPara11352"></flowPara></flowRoot>          <g
             transform="translate(-171.58044,-225.65723)"
             id="g11584">
            <flowRoot
               transform="translate(9.5203817,-59.816909)"
               id="flowRoot11402"
               xml:space="preserve"
               style="font-size:10px;font-style:normal;font-variant:normal;font-weight:normal;font-stretch:normal;line-height:125%;letter-spacing:0px;word-spacing:0px;fill:#000000;fill-opacity:1;stroke:none;font-family:Futura Bk BT;-inkscape-font-specification:Futura Bk BT"><flowRegion
                 id="flowRegion11404"><rect
                   width="99.465004"
                   height="46.242504"
                   x="279.63626"
                   y="325.13339"
                   id="rect11406" /></flowRegion><flowPara
                 id="flowPara11408">0.5</flowPara></flowRoot>            <flowRoot
               transform="translate(3.7017042,7.1720519)"
               id="flowRoot11362"
               xml:space="preserve"
               style="font-size:10px;font-style:normal;font-variant:normal;font-weight:normal;font-stretch:normal;line-height:125%;letter-spacing:0px;word-spacing:0px;fill:#000000;fill-opacity:1;stroke:none;font-family:Futura Bk BT;-inkscape-font-specification:Futura Bk BT"><flowRegion
                 id="flowRegion11364"><rect
                   width="35.33625"
                   height="25.302502"
                   x="195.44002"
                   y="286.74338"
                   id="rect11366" /></flowRegion><flowPara
                 id="flowPara11368">0.0</flowPara></flowRoot>            <flowRoot
               transform="translate(-3.0076347,13.95851)"
               id="flowRoot11370"
               xml:space="preserve"
               style="font-size:10px;font-style:normal;font-variant:normal;font-weight:normal;font-stretch:normal;line-height:125%;letter-spacing:0px;word-spacing:0px;fill:#000000;fill-opacity:1;stroke:none;font-family:Futura Bk BT;-inkscape-font-specification:Futura Bk BT"><flowRegion
                 id="flowRegion11372"><rect
                   width="31.846252"
                   height="33.591251"
                   x="218.56126"
                   y="269.72964"
                   id="rect11374" /></flowRegion><flowPara
                 id="flowPara11376">0.1</flowPara></flowRoot>            <flowRoot
               transform="translate(-5.7839128,3.31611)"
               id="flowRoot11378"
               xml:space="preserve"
               style="font-size:10px;font-style:normal;font-variant:normal;font-weight:normal;font-stretch:normal;line-height:125%;letter-spacing:0px;word-spacing:0px;fill:#000000;fill-opacity:1;stroke:none;font-family:Futura Bk BT;-inkscape-font-specification:Futura Bk BT"><flowRegion
                 id="flowRegion11380"><rect
                   width="92.485008"
                   height="46.678753"
                   x="238.62877"
                   y="272.34714"
                   id="rect11382" /></flowRegion><flowPara
                 id="flowPara11384">0.2</flowPara></flowRoot>            <flowRoot
               transform="translate(-3.5141929,-82.68261)"
               id="flowRoot11386"
               xml:space="preserve"
               style="font-size:10px;font-style:normal;font-variant:normal;font-weight:normal;font-stretch:normal;line-height:125%;letter-spacing:0px;word-spacing:0px;fill:#000000;fill-opacity:1;stroke:none;font-family:Futura Bk BT;-inkscape-font-specification:Futura Bk BT"><flowRegion
                 id="flowRegion11388"><rect
                   width="102.0825"
                   height="61.947502"
                   x="254.77002"
                   y="352.61716"
                   id="rect11390" /></flowRegion><flowPara
                 id="flowPara11392">0.3</flowPara></flowRoot>            <flowRoot
               transform="translate(-5.6954432,-64.743434)"
               id="flowRoot11394"
               xml:space="preserve"
               style="font-size:10px;font-style:normal;font-variant:normal;font-weight:normal;font-stretch:normal;line-height:125%;letter-spacing:0px;word-spacing:0px;fill:#000000;fill-opacity:1;stroke:none;font-family:Futura Bk BT;-inkscape-font-specification:Futura Bk BT"><flowRegion
                 id="flowRegion11396"><rect
                   width="166.21126"
                   height="76.343758"
                   x="275.71002"
                   y="331.24091"
                   id="rect11398" /></flowRegion><flowPara
                 id="flowPara11400">0.4</flowPara></flowRoot>            <flowRoot
               transform="translate(-13.677989,-58.021253)"
               id="flowRoot11410"
               xml:space="preserve"
               style="font-size:10px;font-style:normal;font-variant:normal;font-weight:normal;font-stretch:normal;line-height:125%;letter-spacing:0px;word-spacing:0px;fill:#000000;fill-opacity:1;stroke:none;font-family:Futura Bk BT;-inkscape-font-specification:Futura Bk BT"><flowRegion
                 id="flowRegion11412"><rect
                   width="131.74751"
                   height="56.712502"
                   x="321.95251"
                   y="324.69714"
                   id="rect11414" /></flowRegion><flowPara
                 id="flowPara11416">0.6</flowPara></flowRoot>            <flowRoot
               transform="translate(-18.426083,-85.864136)"
               id="flowRoot11418"
               xml:space="preserve"
               style="font-size:10px;font-style:normal;font-variant:normal;font-weight:normal;font-stretch:normal;line-height:125%;letter-spacing:0px;word-spacing:0px;fill:#000000;fill-opacity:1;stroke:none;font-family:Futura Bk BT;-inkscape-font-specification:Futura Bk BT"><flowRegion
                 id="flowRegion11420"><rect
                   width="160.54001"
                   height="66.310005"
                   x="345.51001"
                   y="356.5434"
                   id="rect11422" /></flowRegion><flowPara
                 id="flowPara11424">0.7</flowPara></flowRoot>            <flowRoot
               transform="translate(39.081801,-112.21984)"
               id="flowRoot11426"
               xml:space="preserve"
               style="font-size:10px;font-style:normal;font-variant:normal;font-weight:normal;font-stretch:normal;line-height:125%;letter-spacing:0px;word-spacing:0px;fill:#000000;fill-opacity:1;stroke:none;font-family:Futura Bk BT;-inkscape-font-specification:Futura Bk BT"><flowRegion
                 id="flowRegion11428"><rect
                   width="144.39876"
                   height="40.571251"
                   x="306.24753"
                   y="388.8259"
                   id="rect11430" /></flowRegion><flowPara
                 id="flowPara11432">0.8</flowPara></flowRoot>            <flowRoot
               transform="translate(24.430002,-99.233648)"
               id="flowRoot11434"
               xml:space="preserve"
               style="font-size:10px;font-style:normal;font-variant:normal;font-weight:normal;font-stretch:normal;line-height:125%;letter-spacing:0px;word-spacing:0px;fill:#000000;fill-opacity:1;stroke:none;font-family:Futura Bk BT;-inkscape-font-specification:Futura Bk BT"><flowRegion
                 id="flowRegion11436"><rect
                   width="140.03625"
                   height="57.148754"
                   x="338.09378"
                   y="384.02716"
                   id="rect11438" /></flowRegion><flowPara
                 id="flowPara11440">0.9</flowPara></flowRoot>            <flowRoot
               transform="translate(151.43169,-117.63327)"
               id="flowRoot11442"
               xml:space="preserve"
               style="font-size:10px;font-style:normal;font-variant:normal;font-weight:normal;font-stretch:normal;line-height:125%;letter-spacing:0px;word-spacing:0px;fill:#000000;fill-opacity:1;stroke:none;font-family:Futura Bk BT;-inkscape-font-specification:Futura Bk BT"><flowRegion
                 id="flowRegion11444"><rect
                   width="102.0825"
                   height="40.571251"
                   x="227.28625"
                   y="412.81964"
                   id="rect11446" /></flowRegion><flowPara
                 id="flowPara11448">1.0</flowPara></flowRoot>          </g>
          <path
             d="m 124.32581,67.092777 -0.0625,9.968803 c 0.35414,0 0.70777,0.027 1.0625,0.031 l 0.0625,-9.968803 c -0.35521,0 -0.70784,-0.03 -1.0625,-0.031 z m -15.84375,0.875 c -0.34419,0.039 -0.68779,0.083 -1.03125,0.125 l 1.1875,9.906303 c 0.34371,-0.042 0.68676,-0.086 1.03125,-0.125 l -1.1875,-9.906303 z m 32.75,0.2188 -1.3125,9.906203 c 0.35574,0.045 0.70778,0.108 1.0625,0.1563 l 1.3125,-9.906303 c -0.35188,-0.048 -0.70969,-0.1111 -1.0625,-0.1562 z M 91.794557,70.96778 c -0.34285,0.084 -0.68937,0.1631 -1.03125,0.25 l 2.4375,9.6875 c 0.3432,-0.087 0.68699,-0.1656 1.03125,-0.25 l -2.4375,-9.6875 z m 66.093753,0.4063 -2.5625,9.6875 c 0.34643,0.089 0.68606,0.1891 1.03125,0.2812 l 2.5625,-9.6875 c -0.34428,-0.092 -0.68582,-0.1921 -1.03125,-0.2812 z m -82.250003,4.6875 c -0.33128,0.1275 -0.66994,0.2449 -1,0.375 l 3.625,9.2812 c 0.33387,-0.1317 0.66479,-0.2461 1,-0.375 l -3.625,-9.2812 z m 98.312503,0.5937 -3.71875,9.25 c 0.33415,0.133 0.66734,0.2705 1,0.4063 l 3.71875,-9.25 c -0.33466,-0.1365 -0.66395,-0.2725 -1,-0.4063 z m -113.687503,6.4688 c -0.31141,0.1674 -0.62752,0.3301 -0.9375,0.5 l 4.75,8.75 c 0.31082,-0.1705 0.62513,-0.3322 0.9375,-0.5 l -4.75,-8.75 z m 129.031253,0.7812 -4.875,8.75 c 0.30162,0.167 0.60621,0.3306 0.90625,0.5 l 4.875,-8.7187 c -0.30619,-0.1728 -0.59854,-0.3609 -0.90625,-0.5313 z m -143.437503,8.125 c -0.29842,0.2124 -0.57835,0.4415 -0.875,0.6563 l 5.8125,8.125 c 0.29523,-0.214 0.57787,-0.4449 0.875,-0.6563 l -5.8125,-8.125 z m 157.687503,1 -5.9375,8.0313 c 0.2936,0.2146 0.58339,0.4391 0.875,0.6562 l 5.9375,-8.0625 c -0.28811,-0.2143 -0.58509,-0.4129 -0.875,-0.625 z"
             id="path8909-7"
             style="font-size:medium;font-style:normal;font-variant:normal;font-weight:normal;font-stretch:normal;text-indent:0;text-align:start;text-decoration:none;line-height:normal;letter-spacing:normal;word-spacing:normal;text-transform:none;direction:ltr;block-progression:tb;writing-mode:lr-tb;text-anchor:start;baseline-shift:baseline;color:#000000;fill:#000000;fill-opacity:1;stroke:none;stroke-width:1.0629921;marker:none;visibility:visible;display:inline;overflow:visible;enable-background:accumulate;font-family:Sans;-inkscape-font-specification:Sans" />
          <path
             d="m 121.20081,67.124077 0.0937,4.937503 c 0.17802,0 0.35308,0 0.53125,0 l -0.0937,-4.937503 c -0.17654,0 -0.35485,0 -0.53125,0 z m 6.78125,0.031 -0.15625,4.937503 c 0.17665,0 0.35447,0.025 0.53125,0.031 l 0.15625,-4.937503 c -0.17689,-0.01 -0.35449,-0.026 -0.53125,-0.031 z m -10.15625,0.062 0.21875,4.968703 c 0.1772,-0.01 0.35389,-0.024 0.53125,-0.031 l -0.21875,-4.937503 c -0.17689,0.01 -0.35452,-0.01 -0.53125,0 z m 13.53125,0.094 -0.28125,4.937503 c 0.17731,0.01 0.35382,0.021 0.53125,0.031 l 0.28125,-4.937403 c -0.17755,-0.01 -0.35381,-0.022 -0.53125,-0.031 z m -16.375,0.094 c -0.17766,0.012 -0.35376,0.019 -0.53125,0.031 l 0.34375,4.906403 c 0.17597,-0.012 0.3551,-0.02 0.53125,-0.031 l -0.34375,-4.906203 z m 19.78125,0.125 -0.40625,4.937503 c 0.17677,0.014 0.3547,0.017 0.53125,0.031 l 0.40625,-4.937503 c -0.17672,-0.015 -0.35432,-0.017 -0.53125,-0.031 z m -23.1875,0.125 c -0.17715,0.016 -0.35428,0.046 -0.53125,0.062 l 0.46875,4.906203 c 0.1787,-0.017 0.35236,-0.046 0.53125,-0.062 l -0.46875,-4.906203 z m 26.5625,0.1875 -0.53125,4.906203 c 0.17768,0.019 0.3538,0.043 0.53125,0.062 l 0.53125,-4.906103 c -0.17741,-0.019 -0.35361,-0.044 -0.53125,-0.062 z m -33.28125,0.5937 c -0.16825,0.024 -0.33194,0.069 -0.5,0.094 l 0.71875,4.875003 c 0.16655,-0.024 0.33326,-0.07 0.5,-0.094 l -0.71875,-4.875003 z m 40,0.2813 -0.78125,4.875003 c 0.16803,0.026 0.3322,0.067 0.5,0.094 l 0.78125,-4.875003 c -0.16786,-0.027 -0.33191,-0.068 -0.5,-0.094 z m -43.34375,0.25 c -0.17639,0.03 -0.35508,0.032 -0.53125,0.062 l 0.84375,4.875003 c 0.17798,-0.031 0.35304,-0.064 0.53125,-0.094 l -0.84375,-4.843803 z m 46.6875,0.3125 -0.90625,4.875003 c 0.16573,0.03 0.33451,0.032 0.5,0.062 l 0.90625,-4.843803 c -0.16715,-0.031 -0.33262,-0.063 -0.5,-0.094 z m -50.031255,0.2814 c -0.17577,0.034 -0.3557,0.059 -0.531248,0.094 l 0.968748,4.875003 c 0.17588,-0.035 0.35513,-0.06 0.53125,-0.094 l -0.96875,-4.875003 z m 53.375005,0.375 -1.03125,4.843703 c 0.16505,0.034 0.3352,0.059 0.5,0.094 l 1.03125,-4.843703 c -0.16644,-0.035 -0.33331,-0.059 -0.5,-0.094 z m -56.718753,0.3125 c -0.16894,0.037 -0.33128,0.087 -0.5,0.125 l 1.09375,4.812603 c 0.16534,-0.037 0.33444,-0.057 0.5,-0.094 l -1.09375,-4.843803 z m 60.031253,0.406203 -1.15625,4.8125 c 0.16804,0.039 0.33223,0.085 0.5,0.125 l 1.15625,-4.8437 c -0.16368,-0.039 -0.33607,-0.055 -0.5,-0.094 z m -66.593753,1.25 c -0.16554,0.045 -0.3347,0.079 -0.5,0.125 l 1.3125,4.75 c 0.16569,-0.046 0.33406,-0.079 0.5,-0.125 l -1.3125,-4.75 z m 73.125003,0.4688 -1.375,4.7187 c 0.16674,0.048 0.33355,0.1077 0.5,0.1563 l 1.375,-4.75 c -0.1649,-0.048 -0.33482,-0.077 -0.5,-0.125 z m -76.375003,0.4687 c -0.16686,0.05 -0.3334,0.1052 -0.5,0.1563 l 1.4375,4.7187 c 0.16746,-0.051 0.33227,-0.1055 0.5,-0.1562 l -1.4375,-4.7188 z m 79.656253,0.5 -1.5,4.6875 c 0.16705,0.053 0.33326,0.103 0.5,0.1563 l 1.5,-4.6875 c -0.16642,-0.053 -0.33329,-0.1038 -0.5,-0.1563 z m -82.906253,0.5313 c -0.15627,0.052 -0.31272,0.104 -0.46875,0.1562 l 1.53125,4.6563 c 0.16426,-0.055 0.33546,-0.102 0.5,-0.1563 l -1.5625,-4.6562 z m 86.093753,0.5 -1.625,4.6875 c 0.16503,0.057 0.33528,0.099 0.5,0.1562 l 1.625,-4.6562 c -0.16765,-0.058 -0.33204,-0.13 -0.5,-0.1875 z m -89.312503,0.5937 c -0.155,0.056 -0.314,0.1001 -0.46875,0.1563 l 1.6875,4.6562 c 0.15844,-0.058 0.31004,-0.1306 0.46875,-0.1875 l -1.6875,-4.625 z m 92.500003,0.5625 -1.71875,4.625 c 0.16671,0.062 0.33363,0.1249 0.5,0.1875 l 1.71875,-4.625 c -0.16698,-0.063 -0.33269,-0.1253 -0.5,-0.1875 z m -98.781253,1.875 c -0.1689,0.07 -0.33143,0.1478 -0.5,0.2188 l 1.90625,4.5625 c 0.16807,-0.071 0.33158,-0.1487 0.5,-0.2188 l -1.90625,-4.5625 z m 105.093753,0.6563 -1.96875,4.5312 c 0.1587,0.068 0.31039,0.1499 0.46875,0.2188 l 1.96875,-4.5313 c -0.15802,-0.069 -0.3104,-0.1506 -0.46875,-0.2187 z m -108.218753,0.6875 c -0.15689,0.07 -0.31217,0.1481 -0.46875,0.2187 l 2.03125,4.5 c 0.15695,-0.071 0.31148,-0.1486 0.46875,-0.2187 l -2.03125,-4.5 z m 111.312503,0.6875 -2.09375,4.5 c 0.15734,0.073 0.31177,0.1456 0.46875,0.2187 l 2.09375,-4.5 c -0.15605,-0.073 -0.31236,-0.1467 -0.46875,-0.2187 z m -114.375003,0.7187 c -0.15639,0.075 -0.31268,0.1436 -0.46875,0.2188 l 2.125,4.4687 c 0.15503,-0.075 0.31339,-0.1447 0.46875,-0.2187 l -2.125,-4.4688 z m 117.437503,0.75 -2.1875,4.4375 c 0.15445,0.076 0.31466,0.1422 0.46875,0.2188 l 2.1875,-4.4375 c -0.15322,-0.076 -0.31519,-0.1433 -0.46875,-0.2188 z m -120.500003,0.75 c -0.15774,0.08 -0.31135,0.1692 -0.46875,0.25 l 2.25,4.4063 c 0.15701,-0.081 0.31138,-0.1701 0.46875,-0.25 l -2.25,-4.4063 z m 123.531253,0.7813 -2.3125,4.375 c 0.15629,0.082 0.31285,0.1675 0.46875,0.25 l 2.3125,-4.4063 c -0.15277,-0.081 -0.31562,-0.1385 -0.46875,-0.2187 z m -129.500003,2.4375 c -0.14517,0.083 -0.29266,0.1662 -0.4375,0.25 l 2.46875,4.2812 c 0.14578,-0.084 0.29137,-0.1663 0.4375,-0.25 l -2.46875,-4.2812 z m 135.406253,0.8437 -2.53125,4.2813 c 0.15232,0.09 0.31685,0.1595 0.46875,0.25 l 2.53125,-4.25 c -0.15549,-0.093 -0.31285,-0.1893 -0.46875,-0.2813 z m -138.312503,0.9063 c -0.15149,0.092 -0.31764,0.1574 -0.46875,0.25 l 2.5625,4.2187 c 0.15552,-0.095 0.31281,-0.1866 0.46875,-0.2812 l -2.5625,-4.1875 z m 141.187503,0.8437 -2.625,4.1875 c 0.16609,0.1036 0.33442,0.2082 0.5,0.3125 l 2.625,-4.1875 c -0.1673,-0.1054 -0.33219,-0.2078 -0.5,-0.3125 z m -144.062503,0.9063 c -0.14544,0.093 -0.29243,0.1873 -0.4375,0.2812 l 2.6875,4.1563 c 0.14587,-0.094 0.29124,-0.1875 0.4375,-0.2813 l -2.6875,-4.1562 z m 146.937503,0.9375 -2.71875,4.125 c 0.1448,0.096 0.29311,0.1851 0.4375,0.2812 l 2.71875,-4.125 c -0.14354,-0.096 -0.29357,-0.1863 -0.4375,-0.2812 z m -149.750003,0.9375 c -0.15515,0.105 -0.31405,0.2068 -0.46875,0.3125 l 2.78125,4.0937 c 0.15909,-0.1087 0.30917,-0.2357 0.46875,-0.3437 l -2.78125,-4.0625 z m 152.562503,0.9687 -2.84375,4.0625 c 0.14369,0.1001 0.29425,0.1806 0.4375,0.2813 l 2.84375,-4.0625 c -0.14159,-0.099 -0.2955,-0.1824 -0.4375,-0.2813 z"
             id="path9045-5"
             style="font-size:medium;font-style:normal;font-variant:normal;font-weight:normal;font-stretch:normal;text-indent:0;text-align:start;text-decoration:none;line-height:normal;letter-spacing:normal;word-spacing:normal;text-transform:none;direction:ltr;block-progression:tb;writing-mode:lr-tb;text-anchor:start;baseline-shift:baseline;color:#000000;fill:#000000;fill-opacity:1;stroke:none;stroke-width:0.53149605;marker:none;visibility:visible;display:inline;overflow:visible;enable-background:accumulate;font-family:Sans;-inkscape-font-specification:Sans" />
          <path
             d="m 203.98206,93.34278 c -19.92302,-14.6969 -44.12868,-24.100503 -70.65625,-25.937503 -3.48318,-0.2412 -6.9404,-0.3359 -10.375,-0.3125 -28.701703,0.1953 -55.544473,9.470503 -77.531253,25.250003"
             id="circle8851-6-9"
             style="color:#000000;fill:none;stroke:#000000;stroke-width:1.41732275;stroke-linecap:butt;stroke-linejoin:miter;stroke-miterlimit:4;stroke-opacity:1;stroke-dasharray:none;stroke-dashoffset:0;marker:none;visibility:visible;display:inline;overflow:visible;enable-background:accumulate" />
          <flowRoot
             transform="matrix(2.1920481,0,0,2.1920481,-339.66211,-405.68512)"
             id="flowRoot11354"
             xml:space="preserve"
             style="font-size:10px;font-style:normal;font-variant:normal;font-weight:normal;font-stretch:normal;line-height:125%;letter-spacing:0px;word-spacing:0px;fill:#000000;fill-opacity:1;stroke:none;font-family:Helvetica;-inkscape-font-specification:Helvetica"><flowRegion
               id="flowRegion11356"><rect
                 width="333.73126"
                 height="113.425"
                 x="204.16501"
                 y="228.72214"
                 id="rect11358"
                 style="font-style:normal;font-variant:normal;font-weight:normal;font-stretch:normal;font-family:Helvetica;-inkscape-font-specification:Helvetica" /></flowRegion><flowPara
               id="flowPara11360"
               style="font-family:Futura;-inkscape-font-specification:Futura">cpu</flowPara></flowRoot>          <flowRoot
             transform="matrix(2.1920481,0,0,2.1920481,-347.06883,-494.70962)"
             id="flowRoot11354-1"
             xml:space="preserve"
             style="font-size:10px;font-style:normal;font-variant:normal;font-weight:normal;font-stretch:normal;line-height:125%;letter-spacing:0px;word-spacing:0px;fill:#000000;fill-opacity:1;stroke:none;font-family:Helvetica;-inkscape-font-specification:Helvetica"><flowRegion
               id="flowRegion11356-7"><rect
                 width="333.73126"
                 height="113.425"
                 x="204.16501"
                 y="228.72214"
                 id="rect11358-0"
                 style="font-style:normal;font-variant:normal;font-weight:normal;font-stretch:normal;font-family:Helvetica;-inkscape-font-specification:Helvetica" /></flowRegion><flowPara
               id="flowPara11360-4"
               style="font-family:Futura;-inkscape-font-specification:Futura">mem</flowPara></flowRoot>          <flowRoot
             transform="translate(-160.71902,-247.27673)"
             id="flowRoot11402-3"
             xml:space="preserve"
             style="font-size:8px;font-style:normal;font-variant:normal;font-weight:normal;font-stretch:normal;line-height:125%;letter-spacing:0px;word-spacing:0px;fill:#000000;fill-opacity:1;stroke:none;font-family:Futura Bk BT;-inkscape-font-specification:Futura Bk BT"><flowRegion
               id="flowRegion11404-7"><rect
                 width="99.465004"
                 height="46.242504"
                 x="279.63626"
                 y="325.13339"
                 id="rect11406-8"
                 style="font-size:8px" /></flowRegion><flowPara
               id="flowPara11408-7">0.5</flowPara></flowRoot>          <flowRoot
             transform="translate(-145.13722,-186.98593)"
             id="flowRoot11362-4"
             xml:space="preserve"
             style="font-size:8px;font-style:normal;font-variant:normal;font-weight:normal;font-stretch:normal;line-height:125%;letter-spacing:0px;word-spacing:0px;fill:#000000;fill-opacity:1;stroke:none;font-family:Futura Bk BT;-inkscape-font-specification:Futura Bk BT"><flowRegion
               id="flowRegion11364-1"><rect
                 width="35.33625"
                 height="25.302502"
                 x="195.44002"
                 y="286.74338"
                 id="rect11366-9"
                 style="font-size:8px" /></flowRegion><flowPara
               id="flowPara11368-0">0.0</flowPara></flowRoot>          <flowRoot
             transform="translate(-155.85674,-177.80883)"
             id="flowRoot11370-9"
             xml:space="preserve"
             style="font-size:8px;font-style:normal;font-variant:normal;font-weight:normal;font-stretch:normal;line-height:125%;letter-spacing:0px;word-spacing:0px;fill:#000000;fill-opacity:1;stroke:none;font-family:Futura Bk BT;-inkscape-font-specification:Futura Bk BT"><flowRegion
               id="flowRegion11372-8"><rect
                 width="31.846252"
                 height="33.591251"
                 x="218.56126"
                 y="269.72964"
                 id="rect11374-8"
                 style="font-size:8px" /></flowRegion><flowPara
               id="flowPara11376-5">0.1</flowPara></flowRoot>          <flowRoot
             transform="translate(-162.6432,-186.60033)"
             id="flowRoot11378-8"
             xml:space="preserve"
             style="font-size:8px;font-style:normal;font-variant:normal;font-weight:normal;font-stretch:normal;line-height:125%;letter-spacing:0px;word-spacing:0px;fill:#000000;fill-opacity:1;stroke:none;font-family:Futura Bk BT;-inkscape-font-specification:Futura Bk BT"><flowRegion
               id="flowRegion11380-4"><rect
                 width="92.485008"
                 height="46.678753"
                 x="238.62877"
                 y="272.34714"
                 id="rect11382-3"
                 style="font-size:8px" /></flowRegion><flowPara
               id="flowPara11384-7">0.2</flowPara></flowRoot>          <flowRoot
             transform="translate(-164.92349,-271.36523)"
             id="flowRoot11386-1"
             xml:space="preserve"
             style="font-size:8px;font-style:normal;font-variant:normal;font-weight:normal;font-stretch:normal;line-height:125%;letter-spacing:0px;word-spacing:0px;fill:#000000;fill-opacity:1;stroke:none;font-family:Futura Bk BT;-inkscape-font-specification:Futura Bk BT"><flowRegion
               id="flowRegion11388-3"><rect
                 width="102.0825"
                 height="61.947502"
                 x="254.77002"
                 y="352.61716"
                 id="rect11390-8"
                 style="font-size:8px" /></flowRegion><flowPara
               id="flowPara11392-0">0.3</flowPara></flowRoot>          <flowRoot
             transform="translate(-171.4234,-252.57773)"
             id="flowRoot11394-9"
             xml:space="preserve"
             style="font-size:8px;font-style:normal;font-variant:normal;font-weight:normal;font-stretch:normal;line-height:125%;letter-spacing:0px;word-spacing:0px;fill:#000000;fill-opacity:1;stroke:none;font-family:Futura Bk BT;-inkscape-font-specification:Futura Bk BT"><flowRegion
               id="flowRegion11396-7"><rect
                 width="166.21126"
                 height="76.343758"
                 x="275.71002"
                 y="331.24091"
                 id="rect11398-9"
                 style="font-size:8px" /></flowRegion><flowPara
               id="flowPara11400-9">0.4</flowPara></flowRoot>          <flowRoot
             transform="translate(-188.52855,-245.78843)"
             id="flowRoot11410-3"
             xml:space="preserve"
             style="font-size:8px;font-style:normal;font-variant:normal;font-weight:normal;font-stretch:normal;line-height:125%;letter-spacing:0px;word-spacing:0px;fill:#000000;fill-opacity:1;stroke:none;font-family:Futura Bk BT;-inkscape-font-specification:Futura Bk BT"><flowRegion
               id="flowRegion11412-2"><rect
                 width="131.74751"
                 height="56.712502"
                 x="321.95251"
                 y="324.69714"
                 id="rect11414-4"
                 style="font-size:8px" /></flowRegion><flowPara
               id="flowPara11416-3">0.6</flowPara></flowRoot>          <flowRoot
             transform="translate(-197.84263,-274.89373)"
             id="flowRoot11418-7"
             xml:space="preserve"
             style="font-size:8px;font-style:normal;font-variant:normal;font-weight:normal;font-stretch:normal;line-height:125%;letter-spacing:0px;word-spacing:0px;fill:#000000;fill-opacity:1;stroke:none;font-family:Futura Bk BT;-inkscape-font-specification:Futura Bk BT"><flowRegion
               id="flowRegion11420-1"><rect
                 width="160.54001"
                 height="66.310005"
                 x="345.51001"
                 y="356.5434"
                 id="rect11422-2"
                 style="font-size:8px" /></flowRegion><flowPara
               id="flowPara11424-2">0.7</flowPara></flowRoot>          <flowRoot
             transform="translate(-144.69196,-302.40623)"
             id="flowRoot11426-0"
             xml:space="preserve"
             style="font-size:8px;font-style:normal;font-variant:normal;font-weight:normal;font-stretch:normal;line-height:125%;letter-spacing:0px;word-spacing:0px;fill:#000000;fill-opacity:1;stroke:none;font-family:Futura Bk BT;-inkscape-font-specification:Futura Bk BT"><flowRegion
               id="flowRegion11428-2"><rect
                 width="144.39876"
                 height="40.571251"
                 x="306.24753"
                 y="388.8259"
                 id="rect11430-1"
                 style="font-size:8px" /></flowRegion><flowPara
               id="flowPara11432-7">0.8</flowPara></flowRoot>          <flowRoot
             transform="translate(-163.35394,-291.34803)"
             id="flowRoot11434-5"
             xml:space="preserve"
             style="font-size:8px;font-style:normal;font-variant:normal;font-weight:normal;font-stretch:normal;line-height:125%;letter-spacing:0px;word-spacing:0px;fill:#000000;fill-opacity:1;stroke:none;font-family:Futura Bk BT;-inkscape-font-specification:Futura Bk BT"><flowRegion
               id="flowRegion11436-1"><rect
                 width="140.03625"
                 height="57.148754"
                 x="338.09378"
                 y="384.02716"
                 id="rect11438-7"
                 style="font-size:8px" /></flowRegion><flowPara
               id="flowPara11440-4">0.9</flowPara></flowRoot>          <flowRoot
             transform="translate(-40.169643,-312.21543)"
             id="flowRoot11442-1"
             xml:space="preserve"
             style="font-size:8px;font-style:normal;font-variant:normal;font-weight:normal;font-stretch:normal;line-height:125%;letter-spacing:0px;word-spacing:0px;fill:#000000;fill-opacity:1;stroke:none;font-family:Futura Bk BT;-inkscape-font-specification:Futura Bk BT"><flowRegion
               id="flowRegion11444-7"><rect
                 width="102.0825"
                 height="40.571251"
                 x="227.28625"
                 y="412.81964"
                 id="rect11446-1"
                 style="font-size:8px" /></flowRegion><flowPara
               id="flowPara11448-1">1.0</flowPara></flowRoot>          <path
             d="m 206.7152,89.63948 6.23178,-8.472"
             id="path8889-4"
             style="fill:none;stroke:#000000;stroke-width:1.0629921;stroke-miterlimit:4;stroke-dasharray:none" />
          <path
             d="m 201.93826,96.12048 2.46872,-3.3407"
             id="path8889-9"
             style="fill:none;stroke:#000000;stroke-width:1.0629921;stroke-miterlimit:4;stroke-dasharray:none" />
          <path
             d="m 42.741987,88.63028 -6.12708,-8.5747"
             id="path8909-1"
             style="fill:none;stroke:#000000;stroke-width:1.0629921;stroke-miterlimit:4;stroke-dasharray:none" />
          <path
             d="m 48.172377,96.17578 -3.18247,-4.3937"
             id="path8909-70"
             style="fill:none;stroke:#000000;stroke-width:1.0629921;stroke-miterlimit:4;stroke-dasharray:none" />
        </g>
        <g
           id="g19862">
          <path
             d="m 178.002,120.2817 c -3.32732,0 -6.04283,2.7155 -6.04283,6.04285 0,0.74768 0.13972,1.46512 0.3901,2.12712 l 1.34694,-1.34691 c -0.0455,-0.25368 -0.0736,-0.51298 -0.0736,-0.78021 0,-0.9095 0.27936,-1.74617 0.75076,-2.44367 l 1.27333,1.27335 1.17766,-1.17766 -1.27334,-1.28069 c 0.69876,-0.47009 1.54151,-0.7434 2.45098,-0.7434 1.5158,0 2.84515,0.75863 3.62866,1.92106 l 1.185,-1.18499 c -1.10287,-1.46036 -2.84907,-2.40685 -4.81366,-2.40685 z m 5.65273,3.92307 -1.3543,1.3543 c 0.0436,0.24919 0.0736,0.50325 0.0736,0.76548 0,0.90945 -0.2733,1.75349 -0.74339,2.451 l -1.27335,-1.27335 -1.17764,1.185 1.26598,1.26595 c -0.69646,0.468 -1.53641,0.74341 -2.44364,0.74341 -1.51205,0 -2.84223,-0.75605 -3.62863,-1.91367 l -1.18502,1.185 c 1.10519,1.45748 2.85132,2.39946 4.81365,2.39946 3.32733,0 6.03548,-2.71552 6.03548,-6.0428 0,-0.74428 -0.1351,-1.46026 -0.38275,-2.11978 z m -5.65273,0.94946 -1.17765,1.17765 1.17765,1.17767 1.17765,-1.185 -1.17765,-1.17032 z"
             id="path27645-2-8-9"
             style="font-size:medium;font-style:normal;font-variant:normal;font-weight:normal;font-stretch:normal;text-indent:0;text-align:start;text-decoration:none;line-height:normal;letter-spacing:normal;word-spacing:normal;text-transform:none;direction:ltr;block-progression:tb;writing-mode:lr-tb;text-anchor:start;baseline-shift:baseline;color:#000000;fill:#000000;fill-opacity:1;stroke:none;stroke-width:7.08661413;marker:none;visibility:visible;display:inline;overflow:visible;enable-background:accumulate;font-family:Sans;-inkscape-font-specification:Sans" />
          <g
             transform="matrix(0.73264973,0,0,0.73264973,51.211412,38.851621)"
             id="g16345">
            <path
               d="m 387.14286,242.71933 a 19.642857,19.642857 0 1 1 -39.28572,0 19.642857,19.642857 0 1 1 39.28572,0 z"
               transform="matrix(0.09467596,0,0,0.09467596,165.92691,96.412846)"
               id="path2816"
               style="fill:#000000;fill-rule:evenodd;stroke:none" />
            <g
               transform="matrix(0.03924462,0,0,0.03924462,186.11947,102.07117)"
               id="g3127"
               style="stroke-width:27.08631516;stroke-miterlimit:4;stroke-dasharray:none">
              <path
                 d="m 295.71429,228.79076 a 48.92857,125 0 1 1 -97.85714,0 48.92857,125 0 1 1 97.85714,0 z"
                 transform="matrix(0,2.4124571,-2.4124571,0,923.99512,-153.99089)"
                 id="path2818"
                 style="fill:none;stroke:#000000;stroke-width:11.22768784;stroke-miterlimit:4;stroke-dasharray:none" />
              <path
                 d="m 295.71429,228.79076 a 48.92857,125 0 1 1 -97.85714,0 48.92857,125 0 1 1 97.85714,0 z"
                 transform="matrix(2.0892491,1.2062286,-1.2062286,2.0892491,132.42433,-334.3118)"
                 id="path2818-9"
                 style="fill:none;stroke:#000000;stroke-width:11.22768784;stroke-miterlimit:4;stroke-dasharray:none" />
              <path
                 d="m 295.71429,228.79076 a 48.92857,125 0 1 1 -97.85714,0 48.92857,125 0 1 1 97.85714,0 z"
                 transform="matrix(2.0892491,-1.2062286,1.2062286,2.0892491,-419.52356,261.04818)"
                 id="path2818-4"
                 style="fill:none;stroke:#000000;stroke-width:11.22768784;stroke-miterlimit:4;stroke-dasharray:none" />
            </g>
          </g>
          <g
             transform="matrix(0.02841466,0,0,0.02841466,207.58282,113.00427)"
             id="g3280">
            <g
               transform="translate(-11.523556,-30.900934)"
               id="g3276">
              <path
                 d="m 424.0625,256.6875 35.21875,207.25 81.5625,0 35.21875,-207.25 -152,0 z"
                 transform="matrix(1.0621755,0,0,1.1807892,-6.1553926,-14.828865)"
                 id="path3242"
                 style="fill:#000000;fill-opacity:1;fill-rule:evenodd;stroke:#000000;stroke-width:25.31130028;stroke-linecap:round;stroke-linejoin:round;stroke-miterlimit:4;stroke-opacity:1;stroke-dasharray:none" />
              <path
                 d="m 459.53125,503.03125 0,81.0625 81.0625,0 0,-81.0625 -81.0625,0 z"
                 transform="matrix(1.0621755,0,0,1.0560536,-6.1553926,59.114013)"
                 id="path3244"
                 style="fill:#000000;fill-opacity:1;fill-rule:evenodd;stroke:#000000;stroke-width:26.76441002;stroke-linecap:round;stroke-linejoin:round;stroke-miterlimit:4;stroke-opacity:1;stroke-dasharray:none" />
            </g>
            <g
               id="g3268"
               style="stroke:#000000;stroke-width:42.51968384;stroke-miterlimit:4;stroke-opacity:1;stroke-dasharray:none">
              <g
                 id="g3246"
                 style="stroke:#000000;stroke-width:42.51968384;stroke-miterlimit:4;stroke-opacity:1;stroke-dasharray:none">
                <path
                   d="m 332.12395,305.34127 c -52.92765,82.31514 -44.30927,245.92956 14.47796,320.31947"
                   id="path2430"
                   style="fill:none;stroke:#000000;stroke-width:42.51968384;stroke-linecap:round;stroke-linejoin:miter;stroke-miterlimit:4;stroke-opacity:1;stroke-dasharray:none" />
                <path
                   d="M 243.8489,252.02662 C 159.40982,405.3458 192.67391,590.39689 270.94323,685.53577"
                   id="path2432"
                   style="fill:none;stroke:#000000;stroke-width:42.51968384;stroke-linecap:round;stroke-linejoin:miter;stroke-miterlimit:4;stroke-opacity:1;stroke-dasharray:none" />
              </g>
              <g
                 transform="matrix(-1.0290349,0,0,1,1032.5929,-3.3491381e-7)"
                 id="g3250"
                 style="stroke:#000000;stroke-width:41.91553116;stroke-miterlimit:4;stroke-opacity:1;stroke-dasharray:none">
                <path
                   d="m 332.12395,305.34127 c -52.92765,82.31514 -44.30927,245.92956 14.47796,320.31947"
                   id="path3252"
                   style="fill:none;stroke:#000000;stroke-width:41.91553116;stroke-linecap:round;stroke-linejoin:miter;stroke-miterlimit:4;stroke-opacity:1;stroke-dasharray:none" />
                <path
                   d="M 243.8489,252.02662 C 159.40982,405.3458 192.67391,590.39689 270.94323,685.53577"
                   id="path3254"
                   style="fill:none;stroke:#000000;stroke-width:41.91553116;stroke-linecap:round;stroke-linejoin:miter;stroke-miterlimit:4;stroke-opacity:1;stroke-dasharray:none" />
              </g>
            </g>
          </g>
          <flowRoot
             transform="matrix(0.65864294,0,0,0.65864294,5.9520803,50.358226)"
             id="flowRoot19480"
             xml:space="preserve"
             style="font-size:10px;font-style:normal;font-variant:normal;font-weight:normal;font-stretch:normal;line-height:125%;letter-spacing:0px;word-spacing:0px;fill:#000000;fill-opacity:1;stroke:none;font-family:Futura Bk BT;-inkscape-font-specification:Futura Bk BT"><flowRegion
               id="flowRegion19482"><rect
                 width="79.559975"
                 height="35.984722"
                 x="16.86784"
                 y="108.79756"
                 id="rect19484" /></flowRegion><flowPara
               id="flowPara19486">23-42 3.142</flowPara></flowRoot>        </g>
      </g>
    </g>
  </g>
  <g
     transform="translate(0,-864.56691)"
     id="layer1" />
</svg>
